<mxfile host="app.diagrams.net" modified="2021-02-09T20:56:46.810Z" agent="5.0 (Windows NT 10.0; Win64; x64) AppleWebKit/537.36 (KHTML, like Gecko) Chrome/88.0.4324.150 Safari/537.36" etag="exD72BfCSL8Zc4EVos3l" version="14.3.0" type="github">
  <diagram id="GofXNyAS5BEUR71aSoc7" name="Page-1">
    <mxGraphModel dx="1422" dy="762" grid="1" gridSize="10" guides="1" tooltips="1" connect="1" arrows="1" fold="1" page="1" pageScale="1" pageWidth="827" pageHeight="1169" math="0" shadow="0">
      <root>
        <mxCell id="0" />
        <mxCell id="1" parent="0" />
        <mxCell id="hT9HpyrqsRKWMOlNXxo4-15" value="" style="shape=mxgraph.mockup.containers.marginRect;rectMarginTop=10;strokeColor=#666666;strokeWidth=1;dashed=0;rounded=1;arcSize=5;recursiveResize=0;" vertex="1" parent="1">
          <mxGeometry x="270" y="160" width="460" height="200" as="geometry" />
        </mxCell>
        <mxCell id="hT9HpyrqsRKWMOlNXxo4-16" value="AWS" style="shape=rect;strokeColor=none;fillColor=#008cff;strokeWidth=1;dashed=0;rounded=1;arcSize=20;fontColor=#ffffff;fontSize=17;spacing=2;spacingTop=-2;align=left;autosize=1;spacingLeft=4;resizeWidth=0;resizeHeight=0;perimeter=none;" vertex="1" parent="hT9HpyrqsRKWMOlNXxo4-15">
          <mxGeometry x="5" width="60" height="30" as="geometry" />
        </mxCell>
        <mxCell id="hT9HpyrqsRKWMOlNXxo4-6" value="&lt;font color=&quot;#000000&quot;&gt;Snowflake&lt;/font&gt;" style="shape=mxgraph.signs.nature.snowflake;html=1;pointerEvents=1;fillColor=#1ba1e2;strokeColor=#006EAF;verticalLabelPosition=bottom;verticalAlign=top;align=center;fontColor=#ffffff;" vertex="1" parent="hT9HpyrqsRKWMOlNXxo4-15">
          <mxGeometry x="340" y="51" width="87" height="98" as="geometry" />
        </mxCell>
        <mxCell id="hT9HpyrqsRKWMOlNXxo4-17" style="edgeStyle=orthogonalEdgeStyle;rounded=0;orthogonalLoop=1;jettySize=auto;html=1;entryX=0.287;entryY=0.582;entryDx=0;entryDy=0;entryPerimeter=0;" edge="1" parent="hT9HpyrqsRKWMOlNXxo4-15" source="hT9HpyrqsRKWMOlNXxo4-12" target="hT9HpyrqsRKWMOlNXxo4-6">
          <mxGeometry relative="1" as="geometry" />
        </mxCell>
        <mxCell id="hT9HpyrqsRKWMOlNXxo4-12" value="S3" style="points=[[0,0,0],[0.25,0,0],[0.5,0,0],[0.75,0,0],[1,0,0],[0,1,0],[0.25,1,0],[0.5,1,0],[0.75,1,0],[1,1,0],[0,0.25,0],[0,0.5,0],[0,0.75,0],[1,0.25,0],[1,0.5,0],[1,0.75,0]];outlineConnect=0;fontColor=#232F3E;gradientColor=#60A337;gradientDirection=north;fillColor=#277116;strokeColor=#ffffff;dashed=0;verticalLabelPosition=bottom;verticalAlign=top;align=center;html=1;fontSize=12;fontStyle=0;aspect=fixed;shape=mxgraph.aws4.resourceIcon;resIcon=mxgraph.aws4.s3;" vertex="1" parent="hT9HpyrqsRKWMOlNXxo4-15">
          <mxGeometry x="174" y="69" width="78" height="78" as="geometry" />
        </mxCell>
        <mxCell id="hT9HpyrqsRKWMOlNXxo4-1" value="Kafka" style="points=[[0,0,0],[0.25,0,0],[0.5,0,0],[0.75,0,0],[1,0,0],[0,1,0],[0.25,1,0],[0.5,1,0],[0.75,1,0],[1,1,0],[0,0.25,0],[0,0.5,0],[0,0.75,0],[1,0.25,0],[1,0.5,0],[1,0.75,0]];outlineConnect=0;fontColor=#232F3E;gradientColor=#945DF2;gradientDirection=north;fillColor=#5A30B5;strokeColor=#ffffff;dashed=0;verticalLabelPosition=bottom;verticalAlign=top;align=center;html=1;fontSize=12;fontStyle=0;aspect=fixed;shape=mxgraph.aws4.resourceIcon;resIcon=mxgraph.aws4.managed_streaming_for_kafka;" vertex="1" parent="hT9HpyrqsRKWMOlNXxo4-15">
          <mxGeometry x="30" y="69" width="78" height="78" as="geometry" />
        </mxCell>
        <mxCell id="hT9HpyrqsRKWMOlNXxo4-13" style="edgeStyle=orthogonalEdgeStyle;rounded=0;orthogonalLoop=1;jettySize=auto;html=1;entryX=0;entryY=0.5;entryDx=0;entryDy=0;entryPerimeter=0;" edge="1" parent="hT9HpyrqsRKWMOlNXxo4-15" source="hT9HpyrqsRKWMOlNXxo4-1" target="hT9HpyrqsRKWMOlNXxo4-12">
          <mxGeometry relative="1" as="geometry" />
        </mxCell>
        <mxCell id="hT9HpyrqsRKWMOlNXxo4-7" value="" style="shape=mxgraph.mockup.containers.marginRect;rectMarginTop=10;strokeColor=#666666;strokeWidth=1;dashed=0;rounded=1;arcSize=5;recursiveResize=0;" vertex="1" parent="1">
          <mxGeometry x="19" y="49" width="201" height="380" as="geometry" />
        </mxCell>
        <mxCell id="hT9HpyrqsRKWMOlNXxo4-8" value="Kafka Producers" style="shape=rect;strokeColor=none;fillColor=#008cff;strokeWidth=1;dashed=0;rounded=1;arcSize=20;fontColor=#ffffff;fontSize=17;spacing=2;spacingTop=-2;align=left;autosize=1;spacingLeft=4;resizeWidth=0;resizeHeight=0;perimeter=none;" vertex="1" parent="hT9HpyrqsRKWMOlNXxo4-7">
          <mxGeometry x="5" width="150" height="30" as="geometry" />
        </mxCell>
        <mxCell id="hT9HpyrqsRKWMOlNXxo4-3" value="Nodejs App - Fake Data" style="shape=image;html=1;verticalAlign=top;verticalLabelPosition=bottom;labelBackgroundColor=#ffffff;imageAspect=0;aspect=fixed;image=https://cdn2.iconfinder.com/data/icons/nodejs-1/128/nodejs-128.png" vertex="1" parent="hT9HpyrqsRKWMOlNXxo4-7">
          <mxGeometry x="36.5" y="50" width="128" height="128" as="geometry" />
        </mxCell>
        <mxCell id="hT9HpyrqsRKWMOlNXxo4-4" value="React App - User Input" style="shape=image;html=1;verticalAlign=top;verticalLabelPosition=bottom;labelBackgroundColor=#ffffff;imageAspect=0;aspect=fixed;image=https://cdn0.iconfinder.com/data/icons/logos-brands-in-colors/128/react_color-128.png" vertex="1" parent="hT9HpyrqsRKWMOlNXxo4-7">
          <mxGeometry x="46.5" y="240" width="108" height="108" as="geometry" />
        </mxCell>
        <mxCell id="hT9HpyrqsRKWMOlNXxo4-9" style="edgeStyle=orthogonalEdgeStyle;rounded=0;orthogonalLoop=1;jettySize=auto;html=1;entryX=0;entryY=0.5;entryDx=0;entryDy=0;entryPerimeter=0;" edge="1" parent="1" source="hT9HpyrqsRKWMOlNXxo4-3" target="hT9HpyrqsRKWMOlNXxo4-1">
          <mxGeometry relative="1" as="geometry" />
        </mxCell>
        <mxCell id="hT9HpyrqsRKWMOlNXxo4-10" style="edgeStyle=orthogonalEdgeStyle;rounded=0;orthogonalLoop=1;jettySize=auto;html=1;" edge="1" parent="1" source="hT9HpyrqsRKWMOlNXxo4-4" target="hT9HpyrqsRKWMOlNXxo4-1">
          <mxGeometry relative="1" as="geometry" />
        </mxCell>
        <mxCell id="hT9HpyrqsRKWMOlNXxo4-19" value="React App - Analytical &lt;br&gt;Dashboard" style="shape=image;html=1;verticalAlign=top;verticalLabelPosition=bottom;labelBackgroundColor=#ffffff;imageAspect=0;aspect=fixed;image=https://cdn0.iconfinder.com/data/icons/logos-brands-in-colors/128/react_color-128.png" vertex="1" parent="1">
          <mxGeometry x="760" y="206" width="108" height="108" as="geometry" />
        </mxCell>
        <mxCell id="hT9HpyrqsRKWMOlNXxo4-20" style="edgeStyle=orthogonalEdgeStyle;rounded=0;orthogonalLoop=1;jettySize=auto;html=1;" edge="1" parent="1" source="hT9HpyrqsRKWMOlNXxo4-1" target="hT9HpyrqsRKWMOlNXxo4-19">
          <mxGeometry relative="1" as="geometry">
            <Array as="points">
              <mxPoint x="400" y="268" />
              <mxPoint x="400" y="464" />
            </Array>
          </mxGeometry>
        </mxCell>
        <mxCell id="hT9HpyrqsRKWMOlNXxo4-23" style="edgeStyle=orthogonalEdgeStyle;rounded=0;orthogonalLoop=1;jettySize=auto;html=1;" edge="1" parent="1" source="hT9HpyrqsRKWMOlNXxo4-6" target="hT9HpyrqsRKWMOlNXxo4-19">
          <mxGeometry relative="1" as="geometry" />
        </mxCell>
      </root>
    </mxGraphModel>
  </diagram>
</mxfile>
